<svg width="478" height="191" viewBox="0 0 478 191" fill="none" xmlns="http://www.w3.org/2000/svg">
<path d="M28.069 127.786C27.684 129.139 27.5043 130.309 27.5043 131.454C27.5043 136.292 30.5589 138.997 35.3334 138.997C38.3881 138.997 41.8278 138.034 45.6268 136.11L45.8065 136.5C37.7977 144.823 29.1985 148.283 20.2398 148.283C7.84155 148.283 0.962158 141.13 0.962158 130.881C0.962158 128.748 1.34721 126.616 1.91193 124.301L14.8749 71.7063C15.8247 68.0388 16.2098 65.7238 16.2098 63.5909C16.2098 58.1806 13.5401 55.0853 8.3806 51.5998V51.2097H46.7306L28.0433 127.76L28.069 127.786ZM39.6972 4.05176C48.8612 4.05176 54.9705 10.6325 54.9705 19.1381C54.9705 28.424 47.5264 35.9672 38.003 35.9672C28.4797 35.9672 22.7298 29.5945 22.7298 21.089C22.7298 11.621 30.1739 4.07777 39.6972 4.07777V4.05176Z" fill="#CCCCCC"/>
<path d="M61.0797 146.332H34.1782L52.5061 71.7064C53.4559 68.0388 53.8409 65.7239 53.8409 63.591C53.8409 58.1807 50.9916 55.0854 46.0118 51.5999V51.2097H84.3618L76.9177 81.9547C85.8763 63.2008 100.379 49.2849 117.732 49.2849C131.85 49.2849 137.754 58.3627 137.754 70.3538C137.754 73.6312 137.369 77.5068 136.419 81.3825L124.971 127.786C124.586 129.139 124.406 130.309 124.406 131.454C124.406 136.292 127.461 138.997 132.235 138.997C135.29 138.997 138.73 138.034 142.529 136.11L142.708 136.5C134.699 144.823 126.1 148.283 117.142 148.283C104.743 148.283 97.8639 140.948 97.8639 130.699C97.8639 128.774 98.0436 126.642 98.634 124.327L109.518 81.2264C110.288 77.949 110.673 74.8537 110.673 72.3306C110.673 67.1024 108.773 63.643 102.279 63.643C92.3707 63.643 78.4322 75.2439 72.3229 100.761L61.054 146.384L61.0797 146.332Z" fill="#CCCCCC"/>
<path d="M178.979 51.2358H201.671L199.566 56.2559H178.004L157.212 142.274C148.818 176.687 132.21 189.432 107.028 190.212V189.822C118.862 184.412 125.715 164.305 133.544 130.075L150.332 56.2299H138.319L138.884 54.3051L151.667 50.2473L153.772 42.7042C162.551 14.0921 177.798 0.358276 202.236 0.358276C217.689 0.358276 228.187 6.73097 228.187 17.5515C228.187 27.7999 219.229 33.0281 210.244 33.0281C204.905 33.0281 200.336 31.1033 198.616 28.5802C206.445 27.2276 210.45 20.4648 210.45 13.3117C210.45 7.12113 207.6 3.45358 201.876 3.45358C192.148 3.45358 186.988 12.5314 181.649 38.8285L178.979 51.2098V51.2358Z" fill="#CCCCCC"/>
<path d="M201.286 127.786C200.901 129.139 200.721 130.309 200.721 131.454C200.721 136.292 203.776 138.997 208.55 138.997C211.605 138.997 215.044 138.034 218.843 136.11L219.023 136.5C211.014 144.823 202.415 148.283 193.457 148.283C181.058 148.283 174.179 141.13 174.179 130.881C174.179 128.748 174.564 126.616 175.129 124.301L188.092 71.7063C189.041 68.0388 189.426 65.7238 189.426 63.5909C189.426 58.1806 186.757 55.0853 181.597 51.5998V51.2097H219.947L201.26 127.76L201.286 127.786ZM212.94 4.05176C222.104 4.05176 228.213 10.6325 228.213 19.1381C228.213 28.424 220.769 35.9672 211.245 35.9672C201.722 35.9672 195.972 29.5945 195.972 21.089C195.972 11.621 203.416 4.07777 212.94 4.07777V4.05176Z" fill="#CCCCCC"/>
<path d="M234.296 146.332H207.395L225.723 71.7064C226.673 68.0388 227.058 65.7239 227.058 63.591C227.058 58.1807 224.208 55.0854 219.229 51.5999V51.2097H257.579L250.134 81.9547C259.093 63.2008 273.596 49.2849 290.949 49.2849C305.067 49.2849 310.971 58.3627 310.971 70.3538C310.971 73.6312 310.586 77.5068 309.636 81.3825L298.188 127.786C297.802 129.139 297.623 130.309 297.623 131.454C297.623 136.292 300.677 138.997 305.452 138.997C308.507 138.997 311.946 138.034 315.745 136.11L315.925 136.5C307.916 144.823 299.317 148.283 290.358 148.283C277.96 148.283 271.081 140.948 271.081 130.699C271.081 128.774 271.26 126.642 271.851 124.327L282.735 81.2264C283.505 77.949 283.89 74.8537 283.89 72.3306C283.89 67.1024 281.99 63.643 275.496 63.643C265.587 63.643 251.649 75.2439 245.54 100.761L234.271 146.384L234.296 146.332Z" fill="#CCCCCC"/>
<path d="M333.509 127.786C333.124 129.139 332.944 130.309 332.944 131.454C332.944 136.292 335.999 138.997 340.773 138.997C343.828 138.997 347.267 138.034 351.066 136.11L351.246 136.5C343.237 144.823 334.638 148.283 325.679 148.283C313.281 148.283 306.402 141.13 306.402 130.881C306.402 128.748 306.787 126.616 307.352 124.301L320.315 71.7063C321.264 68.0388 321.649 65.7238 321.649 63.5909C321.649 58.1806 318.98 55.0853 313.82 51.5998V51.2097H352.17L333.483 127.76L333.509 127.786ZM345.137 4.05176C354.301 4.05176 360.41 10.6325 360.41 19.1381C360.41 28.424 352.966 35.9672 343.443 35.9672C333.919 35.9672 328.169 29.5945 328.169 21.089C328.169 11.621 335.613 4.07777 345.137 4.07777V4.05176Z" fill="#CCCCCC"/>
<path d="M370.704 125.081C370.524 126.251 370.319 127.396 370.319 128.358C370.319 134.549 374.708 137.826 380.817 137.826C385.977 137.826 392.651 135.121 398.375 129.321L398.76 129.711C389.981 141.884 379.688 148.257 365.185 148.257C350.682 148.257 343.443 140.531 343.443 129.503C343.443 127.578 343.622 125.237 344.213 123.13L360.616 56.2559H349.167L349.552 54.3311C369.779 49.311 384.642 37.3199 395.526 17.7856H397.04L388.646 51.2358H413.443L411.338 56.2559H387.491L370.704 125.081Z" fill="#CCCCCC"/>
<path d="M388.056 109.995C388.056 78.6773 414.008 49.2849 448.328 49.2849C465.885 49.2849 477.334 57.9726 477.334 70.3538C477.334 91.8129 451.382 100.318 415.702 101.099C415.317 104.194 415.137 107.289 415.137 110.177C415.137 128.722 425.046 136.864 438.804 136.864C450.432 136.864 459.417 131.636 467.99 121.205H468.94C460.726 138.607 445.863 148.257 426.586 148.257C403.894 148.257 388.056 133.56 388.056 109.969V109.995ZM416.112 98.7838C440.729 96.4688 456.747 82.9431 456.747 62.8366C456.747 56.8541 454.078 52.7964 448.738 52.7964C434.44 52.7964 419.937 76.1803 416.112 98.8098V98.7838Z" fill="#CCCCCC"/>
</svg>
