<svg width="1055" height="402" viewBox="0 0 1055 402" fill="none" xmlns="http://www.w3.org/2000/svg">
<g clip-path="url(#clip0_0_1)" filter="url(#filter0_ddd_0_1)">
<path d="M563.083 187.479C581.026 187.479 594.169 195.022 594.169 206.415C594.169 213.958 588.265 218.588 581 218.588C576.996 218.588 573.171 217.054 570.886 214.323C575.456 213.75 577.946 209.302 577.946 204.074C577.946 195.959 572.401 190.731 561.723 190.731C551.044 190.731 543.035 196.921 543.035 205.999C543.035 213.334 547.604 217.21 560.388 224.363C578.51 234.403 586.339 240.984 586.339 253.937C586.339 272.691 566.882 286.425 543.6 286.425C522.243 286.425 507.92 277.139 507.92 264.784C507.92 256.668 514.414 252.013 522.217 252.013C526.427 252.013 530.432 253.365 533.101 256.07C528.327 256.252 525.092 260.518 525.092 266.501C525.092 276.177 532.716 283.122 544.729 283.122C556.743 283.122 565.727 276.749 565.727 266.891C565.727 259.738 560.773 254.51 547.784 247.747C532.716 239.813 523.373 232.27 523.373 218.953C523.373 201.369 541.315 187.453 563.057 187.453L563.083 187.479Z" fill="#CCCCCC"/>
<path d="M595.144 327.236H568.243L597.044 209.901C597.993 206.233 598.378 203.918 598.378 201.785C598.378 196.375 595.529 193.28 590.549 189.794V189.404H628.899L622.995 214.141C630.439 200.225 642.838 187.453 659.625 187.453C678.518 187.453 688.632 201.369 688.632 222.438C688.632 254.926 667.275 286.425 636.728 286.425C622.046 286.425 611.932 276.957 610.392 265.356L595.118 327.21L595.144 327.236ZM647.227 199.47C634.829 199.47 623.201 212.424 619.171 230.007L614.396 248.553C613.241 253.001 612.882 256.877 612.882 260.336C612.882 272.327 619.376 278.518 628.155 278.518C647.433 278.518 661.166 245.848 661.166 220.513C661.166 207.95 656.956 199.444 647.227 199.444V199.47Z" fill="#CCCCCC"/>
<path d="M767.026 265.954C764.357 276.775 772.93 280.078 784.584 274.278L784.764 274.668C776.935 282.992 768.156 286.451 759.197 286.451C746.978 286.451 739.919 279.116 740.304 267.515C740.304 265.772 740.689 263.067 741.639 260.544C734.015 274.46 723.517 286.243 706.344 286.243C689.171 286.243 677.337 272.899 677.337 252.403C677.337 219.343 701.569 187.453 732.86 187.453C747.928 187.453 755.937 196.141 759.197 206.597C765.871 196.557 775.985 190.366 787.254 187.453C783.249 199.054 779.63 213.75 776.755 225.143L767.026 265.928V265.954ZM745.284 243.923L750.623 223.635C751.779 218.614 752.523 214.349 752.523 210.681C752.523 199.47 746.234 194.06 738.405 194.06C719.332 194.06 704.829 229.825 704.829 254.38C704.829 267.515 709.398 274.876 718.768 274.876C730.396 274.876 740.895 260.57 745.284 243.949V243.923Z" fill="#CCCCCC"/>
<path d="M860.694 208.73C860.694 219.759 852.12 227.666 841.236 227.666C834.947 227.666 828.273 224.389 827.298 217.236C828.633 218.016 830.738 218.588 832.252 218.588C840.081 218.588 844.471 211.617 844.471 203.32C844.471 195.985 841.031 191.147 833.972 191.147C816.799 191.147 800.781 221.501 800.781 247.2C800.781 266.735 810.51 275.24 823.473 275.24C834.922 275.24 843.11 270.22 851.324 259.399H852.479C844.265 276.983 829.788 286.451 811.845 286.451C789.718 286.451 773.7 271.573 773.7 247.59C773.7 216.273 799.447 187.479 833.407 187.479C848.86 187.479 860.694 195.412 860.694 208.756V208.73Z" fill="#CCCCCC"/>
<path d="M845.061 248.163C845.061 216.846 871.013 187.453 905.358 187.453C922.916 187.453 934.365 196.141 934.365 208.522C934.365 229.981 908.413 238.487 872.732 239.267C872.347 242.362 872.168 245.458 872.168 248.345C872.168 266.891 882.076 275.032 895.835 275.032C907.463 275.032 916.447 269.804 925.021 259.374H925.971C917.757 276.775 902.894 286.425 883.616 286.425C860.925 286.425 845.087 271.729 845.087 248.137L845.061 248.163ZM873.092 236.952C897.709 234.637 913.726 221.111 913.726 201.005C913.726 195.022 911.057 190.965 905.718 190.965C891.42 190.965 876.917 214.349 873.092 236.978V236.952Z" fill="#CCCCCC"/>
<path d="M967.914 187.479C985.857 187.479 999 195.022 999 206.415C999 213.958 993.096 218.588 985.832 218.588C981.827 218.588 978.002 217.054 975.718 214.323C980.287 213.75 982.777 209.302 982.777 204.074C982.777 195.959 977.232 190.731 966.554 190.731C955.876 190.731 947.867 196.921 947.867 205.999C947.867 213.334 952.436 217.21 965.219 224.363C983.342 234.403 991.171 240.984 991.171 253.937C991.171 272.691 971.714 286.425 948.431 286.425C927.075 286.425 912.751 277.139 912.751 264.784C912.751 256.668 919.245 252.013 927.049 252.013C931.259 252.013 935.263 253.365 937.933 256.07C933.158 256.252 929.924 260.518 929.924 266.501C929.924 276.177 937.548 283.122 949.587 283.122C961.625 283.122 970.584 276.749 970.584 266.891C970.584 259.738 965.63 254.51 952.641 247.747C937.573 239.813 928.23 232.27 928.23 218.953C928.23 201.369 946.173 187.453 967.914 187.453V187.479Z" fill="#CCCCCC"/>
<path d="M318.069 165.786C317.684 167.139 317.504 168.309 317.504 169.454C317.504 174.292 320.559 176.997 325.333 176.997C328.388 176.997 331.828 176.034 335.627 174.11L335.806 174.5C327.798 182.823 319.198 186.283 310.24 186.283C297.841 186.283 290.962 179.13 290.962 168.881C290.962 166.748 291.347 164.616 291.912 162.301L304.875 109.706C305.825 106.039 306.21 103.724 306.21 101.591C306.21 96.1807 303.54 93.0854 298.381 89.5999V89.2097H336.731L318.043 165.76L318.069 165.786ZM329.697 42.0518C338.861 42.0518 344.97 48.6326 344.97 57.1382C344.97 66.4241 337.526 73.9673 328.003 73.9673C318.48 73.9673 312.73 67.5946 312.73 59.089C312.73 49.621 320.174 42.0778 329.697 42.0778V42.0518Z" fill="#CCCCCC"/>
<path d="M351.08 184.332H324.178L342.506 109.706C343.456 106.039 343.841 103.724 343.841 101.591C343.841 96.1807 340.992 93.0854 336.012 89.5999V89.2098H374.362L366.918 119.955C375.876 101.201 390.379 87.285 407.732 87.285C421.85 87.285 427.754 96.3628 427.754 108.354C427.754 111.631 427.369 115.507 426.419 119.383L414.971 165.786C414.586 167.139 414.406 168.309 414.406 169.454C414.406 174.292 417.461 176.997 422.235 176.997C425.29 176.997 428.73 176.034 432.529 174.11L432.708 174.5C424.699 182.823 416.1 186.283 407.142 186.283C394.743 186.283 387.864 178.948 387.864 168.699C387.864 166.775 388.044 164.642 388.634 162.327L399.518 119.226C400.288 115.949 400.673 112.854 400.673 110.331C400.673 105.102 398.773 101.643 392.279 101.643C382.371 101.643 368.432 113.244 362.323 138.761L351.054 184.384L351.08 184.332Z" fill="#CCCCCC"/>
<path d="M468.979 89.2358H491.671L489.566 94.2559H468.004L447.212 180.274C438.818 214.687 422.21 227.432 397.028 228.212V227.822C408.862 222.412 415.715 202.305 423.544 168.075L440.332 94.2299H428.319L428.884 92.3051L441.667 88.2473L443.772 80.7042C452.551 52.0921 467.798 38.3583 492.236 38.3583C507.689 38.3583 518.187 44.731 518.187 55.5515C518.187 65.7999 509.229 71.0281 500.244 71.0281C494.905 71.0281 490.336 69.1033 488.616 66.5802C496.445 65.2276 500.45 58.4648 500.45 51.3117C500.45 45.1211 497.6 41.4536 491.876 41.4536C482.148 41.4536 476.988 50.5314 471.649 76.8285L468.979 89.2098V89.2358Z" fill="#CCCCCC"/>
<path d="M491.286 165.786C490.901 167.139 490.721 168.309 490.721 169.454C490.721 174.292 493.776 176.997 498.55 176.997C501.605 176.997 505.044 176.034 508.843 174.11L509.023 174.5C501.014 182.823 492.415 186.283 483.457 186.283C471.058 186.283 464.179 179.13 464.179 168.881C464.179 166.748 464.564 164.616 465.129 162.301L478.092 109.706C479.041 106.039 479.426 103.724 479.426 101.591C479.426 96.1807 476.757 93.0854 471.597 89.5999V89.2097H509.947L491.26 165.76L491.286 165.786ZM502.94 42.0518C512.104 42.0518 518.213 48.6326 518.213 57.1382C518.213 66.4241 510.769 73.9673 501.245 73.9673C491.722 73.9673 485.972 67.5946 485.972 59.089C485.972 49.621 493.416 42.0778 502.94 42.0778V42.0518Z" fill="#CCCCCC"/>
<path d="M524.296 184.332H497.395L515.723 109.706C516.673 106.039 517.058 103.724 517.058 101.591C517.058 96.1807 514.208 93.0854 509.229 89.5999V89.2098H547.579L540.134 119.955C549.093 101.201 563.596 87.285 580.949 87.285C595.067 87.285 600.971 96.3628 600.971 108.354C600.971 111.631 600.586 115.507 599.636 119.383L588.188 165.786C587.802 167.139 587.623 168.309 587.623 169.454C587.623 174.292 590.677 176.997 595.452 176.997C598.507 176.997 601.946 176.034 605.745 174.11L605.925 174.5C597.916 182.823 589.317 186.283 580.358 186.283C567.96 186.283 561.081 178.948 561.081 168.699C561.081 166.775 561.26 164.642 561.851 162.327L572.735 119.226C573.505 115.949 573.89 112.854 573.89 110.331C573.89 105.102 571.99 101.643 565.496 101.643C555.587 101.643 541.649 113.244 535.54 138.761L524.271 184.384L524.296 184.332Z" fill="#CCCCCC"/>
<path d="M623.509 165.786C623.124 167.139 622.944 168.309 622.944 169.454C622.944 174.292 625.999 176.997 630.773 176.997C633.828 176.997 637.267 176.034 641.066 174.11L641.246 174.5C633.237 182.823 624.638 186.283 615.679 186.283C603.281 186.283 596.402 179.13 596.402 168.881C596.402 166.748 596.787 164.616 597.352 162.301L610.315 109.706C611.264 106.039 611.649 103.724 611.649 101.591C611.649 96.1807 608.98 93.0854 603.82 89.5999V89.2097H642.17L623.483 165.76L623.509 165.786ZM635.137 42.0518C644.301 42.0518 650.41 48.6326 650.41 57.1382C650.41 66.4241 642.966 73.9673 633.443 73.9673C623.919 73.9673 618.169 67.5946 618.169 59.089C618.169 49.621 625.613 42.0778 635.137 42.0778V42.0518Z" fill="#CCCCCC"/>
<path d="M660.704 163.081C660.524 164.251 660.319 165.396 660.319 166.358C660.319 172.549 664.708 175.826 670.817 175.826C675.977 175.826 682.651 173.121 688.375 167.321L688.76 167.711C679.981 179.884 669.688 186.257 655.185 186.257C640.682 186.257 633.443 178.531 633.443 167.503C633.443 165.578 633.622 163.237 634.213 161.13L650.616 94.2559H639.167L639.552 92.3311C659.779 87.311 674.642 75.3199 685.526 55.7856H687.04L678.646 89.2358H703.443L701.338 94.2559H677.491L660.704 163.081Z" fill="#CCCCCC"/>
<path d="M678.056 147.995C678.056 116.677 704.008 87.285 738.328 87.285C755.885 87.285 767.334 95.9726 767.334 108.354C767.334 129.813 741.382 138.319 705.702 139.099C705.317 142.194 705.137 145.289 705.137 148.177C705.137 166.723 715.046 174.864 728.804 174.864C740.432 174.864 749.417 169.636 757.99 159.205H758.94C750.726 176.607 735.863 186.257 716.586 186.257C693.894 186.257 678.056 171.561 678.056 147.969V147.995ZM706.112 136.784C730.729 134.469 746.747 120.943 746.747 100.837C746.747 94.8542 744.078 90.7965 738.738 90.7965C724.44 90.7965 709.937 114.18 706.112 136.81V136.784Z" fill="#CCCCCC"/>
</g>
<g>
<path d="M255.318 101.804L161.927 33L-1.19209e-07 252.793L93.3917 321.597L255.318 101.804Z" fill="#CCCCCC"/>
<path d="M234.989 333.755C276.742 333.755 310.589 299.907 310.589 258.155C310.589 216.402 276.742 182.555 234.989 182.555C193.236 182.555 159.389 216.402 159.389 258.155C159.389 299.907 193.236 333.755 234.989 333.755Z" fill="#789BDE"/>
</g>
<defs>
<filter id="filter0_ddd_0_1" x="-56" y="-5" width="1111" height="406.236" filterUnits="userSpaceOnUse" color-interpolation-filters="sRGB">
<feFlood flood-opacity="0" result="BackgroundImageFix"/>
<feColorMatrix in="SourceAlpha" type="matrix" values="0 0 0 0 0 0 0 0 0 0 0 0 0 0 0 0 0 0 127 0" result="hardAlpha"/>
<feOffset dy="18"/>
<feGaussianBlur stdDeviation="28"/>
<feColorMatrix type="matrix" values="0 0 0 0 0 0 0 0 0 0 0 0 0 0 0 0 0 0 0.1 0"/>
<feBlend mode="normal" in2="BackgroundImageFix" result="effect1_dropShadow_0_1"/>
<feColorMatrix in="SourceAlpha" type="matrix" values="0 0 0 0 0 0 0 0 0 0 0 0 0 0 0 0 0 0 127 0" result="hardAlpha"/>
<feOffset dy="10"/>
<feGaussianBlur stdDeviation="9"/>
<feColorMatrix type="matrix" values="0 0 0 0 0 0 0 0 0 0 0 0 0 0 0 0 0 0 0.05 0"/>
<feBlend mode="normal" in2="effect1_dropShadow_0_1" result="effect2_dropShadow_0_1"/>
<feColorMatrix in="SourceAlpha" type="matrix" values="0 0 0 0 0 0 0 0 0 0 0 0 0 0 0 0 0 0 127 0" result="hardAlpha"/>
<feOffset dy="4"/>
<feGaussianBlur stdDeviation="3"/>
<feColorMatrix type="matrix" values="0 0 0 0 0 0 0 0 0 0 0 0 0 0 0 0 0 0 0.04 0"/>
<feBlend mode="normal" in2="effect2_dropShadow_0_1" result="effect3_dropShadow_0_1"/>
<feBlend mode="normal" in="SourceGraphic" in2="effect3_dropShadow_0_1" result="shape"/>
</filter>
<clipPath id="clip0_0_1">
<rect width="999" height="294.236" fill="white" transform="translate(0 33)"/>
</clipPath>
</defs>
</svg>

