<svg width="492" height="141" viewBox="0 0 492 141" fill="none" xmlns="http://www.w3.org/2000/svg">
<path d="M56.083 0.479254C74.0259 0.479254 87.1686 8.02244 87.1686 19.4152C87.1686 26.9584 81.2646 31.5884 74.0002 31.5884C69.9958 31.5884 66.1711 30.0537 63.8865 27.3226C68.4556 26.7503 70.9456 22.3025 70.9456 17.0743C70.9456 8.95883 65.401 3.73063 54.7225 3.73063C44.0441 3.73063 36.0353 9.92125 36.0353 18.9991C36.0353 26.3342 40.6044 30.2098 53.3877 37.3628C71.5103 47.4031 79.3395 53.9839 79.3395 66.9373C79.3395 85.6912 59.8821 99.425 36.6 99.425C15.2431 99.425 0.919556 90.1391 0.919556 77.7839C0.919556 69.6685 7.41392 65.0125 15.2174 65.0125C19.4272 65.0125 23.4316 66.3651 26.1012 69.0702C21.3267 69.2523 18.0924 73.5181 18.0924 79.5006C18.0924 89.1767 25.7162 96.1217 37.7294 96.1217C49.7427 96.1217 58.727 89.749 58.727 79.8908C58.727 72.7378 53.7728 67.5096 40.7841 60.7467C25.7162 52.8134 16.3725 45.2702 16.3725 31.9525C16.3725 14.3691 34.3154 0.453247 56.0574 0.453247L56.083 0.479254Z" fill="#CCCCCC"/>
<path d="M88.1441 140.236H61.2426L90.0436 22.9007C90.9933 19.2332 91.3784 16.9182 91.3784 14.7853C91.3784 9.37501 88.5291 6.2797 83.5492 2.79423V2.40407H121.899L115.995 27.1405C123.439 13.2246 135.838 0.453247 152.625 0.453247C171.518 0.453247 181.632 14.3691 181.632 35.438C181.632 67.9257 160.275 99.425 129.728 99.425C115.046 99.425 104.932 89.957 103.392 78.3561L88.1184 140.21L88.1441 140.236ZM140.227 12.4703C127.829 12.4703 116.201 25.4238 112.171 43.0072L107.396 61.5531C106.241 66.0009 105.882 69.8766 105.882 73.336C105.882 85.3271 112.376 91.5177 121.155 91.5177C140.433 91.5177 154.166 58.8479 154.166 33.5132C154.166 20.9499 149.956 12.4443 140.227 12.4443V12.4703Z" fill="#CCCCCC"/>
<path d="M260.026 78.9544C257.357 89.775 265.93 93.0784 277.584 87.2779L277.764 87.6681C269.935 95.9916 261.156 99.4511 252.197 99.4511C239.978 99.4511 232.919 92.116 233.304 80.5151C233.304 78.7723 233.689 76.0672 234.639 73.5441C227.015 87.46 216.517 99.243 199.344 99.243C182.171 99.243 170.337 85.8993 170.337 65.4027C170.337 32.3427 194.569 0.453247 225.86 0.453247C240.928 0.453247 248.937 9.14091 252.197 19.5973C258.871 9.55708 268.985 3.36648 280.254 0.453247C276.249 12.0541 272.63 26.7504 269.755 38.1432L260.026 78.9284V78.9544ZM238.284 56.9231L243.623 36.6345C244.779 31.6144 245.523 27.3486 245.523 23.681C245.523 12.4703 239.234 7.06003 231.405 7.06003C212.332 7.06003 197.829 42.8251 197.829 67.3795C197.829 80.5151 202.398 87.8762 211.768 87.8762C223.396 87.8762 233.895 73.5701 238.284 56.9491V56.9231Z" fill="#CCCCCC"/>
<path d="M353.694 21.73C353.694 32.7587 345.12 40.666 334.236 40.666C327.947 40.666 321.273 37.3887 320.298 30.2356C321.633 31.016 323.738 31.5882 325.252 31.5882C333.081 31.5882 337.471 24.6173 337.471 16.3198C337.471 8.98467 334.031 4.14661 326.972 4.14661C309.799 4.14661 293.781 34.5014 293.781 60.2003C293.781 79.7345 303.51 88.2401 316.473 88.2401C327.922 88.2401 336.11 83.22 344.324 72.3994H345.479C337.265 89.9829 322.788 99.4509 304.845 99.4509C282.718 99.4509 266.7 84.5726 266.7 60.5904C266.7 29.2732 292.447 0.479065 326.407 0.479065C341.86 0.479065 353.694 8.41242 353.694 21.7561V21.73Z" fill="#CCCCCC"/>
<path d="M338.061 61.1629C338.061 29.8457 364.013 0.453247 398.358 0.453247C415.916 0.453247 427.365 9.14092 427.365 21.5222C427.365 42.9812 401.413 51.4868 365.732 52.2671C365.347 55.3624 365.168 58.4577 365.168 61.345C365.168 79.8908 375.076 88.0322 388.835 88.0322C400.463 88.0322 409.447 82.804 418.021 72.3736H418.971C410.757 89.775 395.894 99.425 376.616 99.425C353.925 99.425 338.087 84.7288 338.087 61.1369L338.061 61.1629ZM366.092 49.9522C390.709 47.6372 406.726 34.1115 406.726 14.005C406.726 8.02243 404.057 3.96473 398.718 3.96473C384.42 3.96473 369.917 27.3486 366.092 49.9782V49.9522Z" fill="#CCCCCC"/>
<path d="M460.914 0.479254C478.857 0.479254 492 8.02244 492 19.4152C492 26.9584 486.096 31.5884 478.832 31.5884C474.827 31.5884 471.002 30.0537 468.718 27.3226C473.287 26.7503 475.777 22.3025 475.777 17.0743C475.777 8.95883 470.232 3.73063 459.554 3.73063C448.876 3.73063 440.867 9.92125 440.867 18.9991C440.867 26.3342 445.436 30.2098 458.219 37.3628C476.342 47.4031 484.171 53.9839 484.171 66.9373C484.171 85.6912 464.714 99.425 441.431 99.425C420.075 99.425 405.751 90.1391 405.751 77.7839C405.751 69.6685 412.245 65.0125 420.049 65.0125C424.259 65.0125 428.263 66.3651 430.933 69.0702C426.158 69.2523 422.924 73.5181 422.924 79.5006C422.924 89.1767 430.548 96.1217 442.587 96.1217C454.625 96.1217 463.584 89.749 463.584 79.8908C463.584 72.7378 458.63 67.5096 445.641 60.7467C430.573 52.8134 421.23 45.2702 421.23 31.9525C421.23 14.3691 439.173 0.453247 460.914 0.453247V0.479254Z" fill="#CCCCCC"/>
</svg>
