<svg width="709" height="290" viewBox="0 0 709 290" fill="none" xmlns="http://www.w3.org/2000/svg">
<path d="M273.083 149.479C291.026 149.479 304.169 157.022 304.169 168.415C304.169 175.958 298.265 180.588 291 180.588C286.996 180.588 283.171 179.054 280.886 176.323C285.456 175.75 287.946 171.302 287.946 166.074C287.946 157.959 282.401 152.731 271.723 152.731C261.044 152.731 253.035 158.921 253.035 167.999C253.035 175.334 257.604 179.21 270.388 186.363C288.51 196.403 296.339 202.984 296.339 215.937C296.339 234.691 276.882 248.425 253.6 248.425C232.243 248.425 217.92 239.139 217.92 226.784C217.92 218.668 224.414 214.013 232.217 214.013C236.427 214.013 240.432 215.365 243.101 218.07C238.327 218.252 235.092 222.518 235.092 228.501C235.092 238.177 242.716 245.122 254.729 245.122C266.743 245.122 275.727 238.749 275.727 228.891C275.727 221.738 270.773 216.51 257.784 209.747C242.716 201.813 233.373 194.27 233.373 180.953C233.373 163.369 251.315 149.453 273.057 149.453L273.083 149.479Z" fill="#CCCCCC"/>
<path d="M305.144 289.236H278.243L307.044 171.901C307.993 168.233 308.378 165.918 308.378 163.785C308.378 158.375 305.529 155.28 300.549 151.794V151.404H338.899L332.995 176.141C340.439 162.225 352.838 149.453 369.625 149.453C388.518 149.453 398.632 163.369 398.632 184.438C398.632 216.926 377.275 248.425 346.728 248.425C332.046 248.425 321.932 238.957 320.392 227.356L305.118 289.21L305.144 289.236ZM357.227 161.47C344.829 161.47 333.201 174.424 329.171 192.007L324.396 210.553C323.241 215.001 322.882 218.877 322.882 222.336C322.882 234.327 329.376 240.518 338.155 240.518C357.433 240.518 371.166 207.848 371.166 182.513C371.166 169.95 366.956 161.444 357.227 161.444V161.47Z" fill="#CCCCCC"/>
<path d="M477.026 227.954C474.357 238.775 482.93 242.078 494.584 236.278L494.764 236.668C486.935 244.992 478.156 248.451 469.197 248.451C456.978 248.451 449.919 241.116 450.304 229.515C450.304 227.772 450.689 225.067 451.639 222.544C444.015 236.46 433.517 248.243 416.344 248.243C399.171 248.243 387.337 234.899 387.337 214.403C387.337 181.343 411.569 149.453 442.86 149.453C457.928 149.453 465.937 158.141 469.197 168.597C475.871 158.557 485.985 152.366 497.254 149.453C493.249 161.054 489.63 175.75 486.755 187.143L477.026 227.928V227.954ZM455.284 205.923L460.623 185.635C461.779 180.614 462.523 176.349 462.523 172.681C462.523 161.47 456.234 156.06 448.405 156.06C429.332 156.06 414.829 191.825 414.829 216.38C414.829 229.515 419.398 236.876 428.768 236.876C440.396 236.876 450.895 222.57 455.284 205.949V205.923Z" fill="#CCCCCC"/>
<path d="M570.694 170.73C570.694 181.759 562.12 189.666 551.236 189.666C544.947 189.666 538.273 186.389 537.298 179.236C538.633 180.016 540.738 180.588 542.252 180.588C550.081 180.588 554.471 173.617 554.471 165.32C554.471 157.985 551.031 153.147 543.972 153.147C526.799 153.147 510.781 183.501 510.781 209.2C510.781 228.735 520.51 237.24 533.473 237.24C544.922 237.24 553.11 232.22 561.324 221.399H562.479C554.265 238.983 539.788 248.451 521.845 248.451C499.718 248.451 483.7 233.573 483.7 209.59C483.7 178.273 509.447 149.479 543.407 149.479C558.86 149.479 570.694 157.412 570.694 170.756V170.73Z" fill="#CCCCCC"/>
<path d="M555.061 210.163C555.061 178.846 581.013 149.453 615.358 149.453C632.916 149.453 644.365 158.141 644.365 170.522C644.365 191.981 618.413 200.487 582.732 201.267C582.347 204.362 582.168 207.458 582.168 210.345C582.168 228.891 592.076 237.032 605.835 237.032C617.463 237.032 626.447 231.804 635.021 221.374H635.971C627.757 238.775 612.894 248.425 593.616 248.425C570.925 248.425 555.087 233.729 555.087 210.137L555.061 210.163ZM583.092 198.952C607.709 196.637 623.726 183.111 623.726 163.005C623.726 157.022 621.057 152.965 615.718 152.965C601.42 152.965 586.917 176.349 583.092 198.978V198.952Z" fill="#CCCCCC"/>
<path d="M677.914 149.479C695.857 149.479 709 157.022 709 168.415C709 175.958 703.096 180.588 695.832 180.588C691.827 180.588 688.002 179.054 685.718 176.323C690.287 175.75 692.777 171.302 692.777 166.074C692.777 157.959 687.232 152.731 676.554 152.731C665.876 152.731 657.867 158.921 657.867 167.999C657.867 175.334 662.436 179.21 675.219 186.363C693.342 196.403 701.171 202.984 701.171 215.937C701.171 234.691 681.714 248.425 658.431 248.425C637.075 248.425 622.751 239.139 622.751 226.784C622.751 218.668 629.245 214.013 637.049 214.013C641.259 214.013 645.263 215.365 647.933 218.07C643.158 218.252 639.924 222.518 639.924 228.501C639.924 238.177 647.548 245.122 659.587 245.122C671.625 245.122 680.584 238.749 680.584 228.891C680.584 221.738 675.63 216.51 662.641 209.747C647.573 201.813 638.23 194.27 638.23 180.953C638.23 163.369 656.173 149.453 677.914 149.453V149.479Z" fill="#CCCCCC"/>
<path d="M28.069 127.786C27.6839 129.139 27.5042 130.309 27.5042 131.454C27.5042 136.292 30.5589 138.997 35.3334 138.997C38.388 138.997 41.8277 138.034 45.6268 136.11L45.8065 136.5C37.7976 144.823 29.1984 148.283 20.2398 148.283C7.84149 148.283 0.962097 141.13 0.962097 130.881C0.962097 128.748 1.34714 126.616 1.91187 124.301L14.8749 71.7064C15.8246 68.0388 16.2097 65.7239 16.2097 63.591C16.2097 58.1807 13.5401 55.0854 8.38054 51.5999V51.2097H46.7305L28.0433 127.76L28.069 127.786ZM39.6972 4.05182C48.8611 4.05182 54.9704 10.6326 54.9704 19.1382C54.9704 28.4241 47.5263 35.9673 38.003 35.9673C28.4796 35.9673 22.7297 29.5946 22.7297 21.089C22.7297 11.621 30.1738 4.07783 39.6972 4.07783V4.05182Z" fill="#CCCCCC"/>
<path d="M61.0797 146.332H34.1782L52.5061 71.7064C53.4559 68.0389 53.8409 65.7239 53.8409 63.591C53.8409 58.1807 50.9916 55.0854 46.0118 51.5999V51.2098H84.3618L76.9177 81.9548C85.8763 63.2008 100.379 49.285 117.732 49.285C131.85 49.285 137.754 58.3628 137.754 70.3539C137.754 73.6313 137.369 77.5069 136.419 81.3825L124.971 127.786C124.586 129.139 124.406 130.309 124.406 131.454C124.406 136.292 127.461 138.997 132.235 138.997C135.29 138.997 138.73 138.034 142.529 136.11L142.708 136.5C134.699 144.823 126.1 148.283 117.142 148.283C104.743 148.283 97.8639 140.948 97.8639 130.699C97.8639 128.775 98.0436 126.642 98.634 124.327L109.518 81.2265C110.288 77.9491 110.673 74.8538 110.673 72.3307C110.673 67.1025 108.773 63.643 102.279 63.643C92.3707 63.643 78.4322 75.2439 72.3229 100.761L61.054 146.384L61.0797 146.332Z" fill="#CCCCCC"/>
<path d="M178.979 51.2358H201.671L199.566 56.2559H178.004L157.212 142.274C148.818 176.687 132.21 189.432 107.028 190.212V189.822C118.862 184.412 125.715 164.305 133.544 130.075L150.332 56.2299H138.319L138.884 54.3051L151.667 50.2473L153.772 42.7042C162.551 14.0921 177.798 0.358276 202.236 0.358276C217.689 0.358276 228.187 6.73097 228.187 17.5515C228.187 27.7999 219.229 33.0281 210.244 33.0281C204.905 33.0281 200.336 31.1033 198.616 28.5802C206.445 27.2276 210.45 20.4648 210.45 13.3117C210.45 7.12113 207.6 3.45358 201.876 3.45358C192.148 3.45358 186.988 12.5314 181.649 38.8285L178.979 51.2098V51.2358Z" fill="#CCCCCC"/>
<path d="M201.286 127.786C200.901 129.139 200.721 130.309 200.721 131.454C200.721 136.292 203.776 138.997 208.55 138.997C211.605 138.997 215.044 138.034 218.843 136.11L219.023 136.5C211.014 144.823 202.415 148.283 193.457 148.283C181.058 148.283 174.179 141.13 174.179 130.881C174.179 128.748 174.564 126.616 175.129 124.301L188.092 71.7064C189.041 68.0388 189.426 65.7239 189.426 63.591C189.426 58.1807 186.757 55.0854 181.597 51.5999V51.2097H219.947L201.26 127.76L201.286 127.786ZM212.94 4.05182C222.104 4.05182 228.213 10.6326 228.213 19.1382C228.213 28.4241 220.769 35.9673 211.245 35.9673C201.722 35.9673 195.972 29.5946 195.972 21.089C195.972 11.621 203.416 4.07783 212.94 4.07783V4.05182Z" fill="#CCCCCC"/>
<path d="M234.296 146.332H207.395L225.723 71.7064C226.673 68.0389 227.058 65.7239 227.058 63.591C227.058 58.1807 224.208 55.0854 219.229 51.5999V51.2098H257.579L250.134 81.9548C259.093 63.2008 273.596 49.285 290.949 49.285C305.067 49.285 310.971 58.3628 310.971 70.3539C310.971 73.6313 310.586 77.5069 309.636 81.3825L298.188 127.786C297.802 129.139 297.623 130.309 297.623 131.454C297.623 136.292 300.677 138.997 305.452 138.997C308.507 138.997 311.946 138.034 315.745 136.11L315.925 136.5C307.916 144.823 299.317 148.283 290.358 148.283C277.96 148.283 271.081 140.948 271.081 130.699C271.081 128.775 271.26 126.642 271.851 124.327L282.735 81.2265C283.505 77.9491 283.89 74.8538 283.89 72.3307C283.89 67.1025 281.99 63.643 275.496 63.643C265.587 63.643 251.649 75.2439 245.54 100.761L234.271 146.384L234.296 146.332Z" fill="#CCCCCC"/>
<path d="M333.509 127.786C333.124 129.139 332.944 130.309 332.944 131.454C332.944 136.292 335.999 138.997 340.773 138.997C343.828 138.997 347.267 138.034 351.066 136.11L351.246 136.5C343.237 144.823 334.638 148.283 325.679 148.283C313.281 148.283 306.402 141.13 306.402 130.881C306.402 128.748 306.787 126.616 307.352 124.301L320.315 71.7064C321.264 68.0388 321.649 65.7239 321.649 63.591C321.649 58.1807 318.98 55.0854 313.82 51.5999V51.2097H352.17L333.483 127.76L333.509 127.786ZM345.137 4.05182C354.301 4.05182 360.41 10.6326 360.41 19.1382C360.41 28.4241 352.966 35.9673 343.443 35.9673C333.919 35.9673 328.169 29.5946 328.169 21.089C328.169 11.621 335.613 4.07783 345.137 4.07783V4.05182Z" fill="#CCCCCC"/>
<path d="M370.704 125.081C370.524 126.251 370.319 127.396 370.319 128.358C370.319 134.549 374.708 137.826 380.817 137.826C385.977 137.826 392.651 135.121 398.375 129.321L398.76 129.711C389.981 141.884 379.688 148.257 365.185 148.257C350.682 148.257 343.443 140.531 343.443 129.503C343.443 127.578 343.622 125.237 344.213 123.13L360.616 56.2559H349.167L349.552 54.3311C369.779 49.311 384.642 37.3199 395.526 17.7856H397.04L388.646 51.2358H413.443L411.338 56.2559H387.491L370.704 125.081Z" fill="#CCCCCC"/>
<path d="M388.056 109.995C388.056 78.6774 414.008 49.285 448.328 49.285C465.885 49.285 477.334 57.9726 477.334 70.3539C477.334 91.8129 451.382 100.319 415.702 101.099C415.317 104.194 415.137 107.289 415.137 110.177C415.137 128.723 425.046 136.864 438.804 136.864C450.432 136.864 459.417 131.636 467.99 121.205H468.94C460.726 138.607 445.863 148.257 426.586 148.257C403.894 148.257 388.056 133.561 388.056 109.969V109.995ZM416.112 98.7839C440.729 96.4689 456.747 82.9432 456.747 62.8367C456.747 56.8542 454.078 52.7965 448.738 52.7965C434.44 52.7965 419.937 76.1803 416.112 98.8099V98.7839Z" fill="#CCCCCC"/>
</svg>
